<?xml version="1.0" encoding="utf-8"?>
<?xml-stylesheet type="text/xsl" href="rss1.xsl"?>
<rss version="2.0" xmlns:atom="http://www.w3.org/2005/Atom" xmlns:content="http://purl.org/rss/1.0/modules/content/" xmlns:dc="http://purl.org/dc/elements/1.1/" xmlns:media="http://search.yahoo.com/mrss/">
<channel>
 <title>Getty</title>
 <link>http://www.gettyimg.com/</link>
 <atom:link href="http://www.gettyimg.com/" rel="self" type="application/rss+xml" />

 
                <item>
                <title><![CDATA[【HD Live Performances】Coldplay - Live from Buenos Aires 2022 1080p [Broadcast]]]></title>
                <link><![CDATA[https://sharemania.us/threads/coldplay-live-from-buenos-aires-2022-1080p-broadcast.229960/]]></link>
                <description><![CDATA[<article>
<blockquote class="messageText SelectQuoteContainer ugc baseHtml">
<div style="text-align: center"><b><span style="font-size: 22px"><span style="color: #ff0000"><br>
This is a re-upload of the concert broadcast in October 2022.</span></span></b><br>
​</div><b><span style="font-size: 22px"><span style="color: #ff0000"><img src="https://i.postimg.cc/htXgJVhQ/maxresdefault-3.jpg" class="bbCodeImage LbImage" alt="[​IMG]" data-url="https://i.postimg.cc/htXgJVhQ/maxresdefault-3.jpg" style=""> </span><br>
</span></b><br>
<div class="ToggleTriggerAnchor bbCodeSpoilerContainer">
<button type="button" class="button bbCodeSpoilerButton ToggleTrigger Tooltip JsOnly" data-target="> .SpoilerTarget"><span>Spoiler: <span class="SpoilerTitle">Media Info</span></span></button>
<div class="SpoilerTarget bbCodeSpoilerText"><b><span style="font-size: 22px"><span style="color: #000000">Mediainfo:<br>
Format : Matroska<br>
Format version : Version 4<br>
File size : 9.16 GiB<br>
Duration : 2 h 15 min<br>
Overall bit rate : 9 662 kb/s<br>
Writing application : Lavf59.27.100<br>
Writing library : Lavf59.27.100<br>
ErrorDetectionType : Per level 1<br>
<br>
Video<br>
ID : 1<br>
Format : AVC<br>
Format/Info : Advanced Video Codec<br>
Format profile : High@L4.2<br>
Format settings : CABAC / 4 Ref Frames<br>
Format settings, CABAC : Yes<br>
Format settings, Reference frames : 4 frames<br>
Codec ID : V_MPEG4/ISO/AVC<br>
Duration : 2 h 15 min<br>
Bit rate : 8 830 kb/s<br>
Width : 1 920 pixels<br>
Height : 800 pixels<br>
Display aspect ratio : 2.40:1<br>
Frame rate mode : Constant<br>
Frame rate : 50.000 FPS<br>
Color space : YUV<br>
Chroma subsampling : 4:2:0<br>
Bit depth : 8 bits<br>
Scan type : Progressive<br>
Bits/(Pixel*Frame) : 0.115<br>
Stream size : 8.37 GiB (91%)<br>
Writing library : x264 core 164 r3099 e067ab0<br>
Encoding settings : cabac=1 / ref=1 / deblock=1:0:0 / analyse=0x3:0x113 / me=hex / subme=2 / psy=1 / psy_rd=1.00:0.00 / mixed_ref=0 / me_range=16 / chroma_me=1 / trellis=0 / 8x8dct=1 / cqm=0 / deadzone=21,11 / fast_pskip=1 / chroma_qp_offset=0 / threads=9 / lookahead_threads=3 / sliced_threads=0 / nr=0 / decimate=1 / interlaced=0 / bluray_compat=0 / constrained_intra=0 / bframes=3 / b_pyramid=2 / b_adapt=1 / b_bias=0 / direct=1 / weightb=1 / open_gop=0 / weightp=1 / keyint=250 / keyint_min=25 / scenecut=40 / intra_refresh=0 / rc_lookahead=10 / rc=crf / mbtree=1 / crf=18.0 / qcomp=0.60 / qpmin=0 / qpmax=69 / qpstep=4 / ip_ratio=1.40 / aq=1:1.00<br>
Default : No<br>
Forced : No<br>
Color range : Limited<br>
Color primaries : BT.709<br>
Transfer characteristics : BT.709<br>
Matrix coefficients : BT.709<br>
<br>
Audio<br>
ID : 2<br>
Format : AC-3<br>
Format/Info : Audio Coding 3<br>
Commercial name : Dolby Digital<br>
Codec ID : A_AC3<br>
Duration : 2 h 15 min<br>
Bit rate mode : Constant<br>
Bit rate : 640 kb/s<br>
Channel(s) : 6 channels<br>
Channel layout : L R C LFE Ls Rs<br>
Sampling rate : 48.0 kHz<br>
Frame rate : 31.250 FPS (1536 SPF)<br>
Bit depth : 32 bits<br>
Compression mode : Lossy<br>
Stream size : 621 MiB (7%)<br>
Language : English<br>
Service kind : Complete Main<br>
Default : No<br>
Forced : No</span></span></b></div>
</div><br>
<span style="font-size: 22px">Download (OneDrive): <br>
<div class="bbCodeBlock bbCodeVfcHH HiddenContent">
<div class="attribution type">Hidden Content:</div>
<blockquote>You must either reply or click 'Like' to see the hidden information contained here.</blockquote>
</div>Enjoy! <img src="styles/default/xenforo/smilies/big_smile-48.png" class="mceSmilie" alt=":)" title="Smile    :)"></span>
<div class="messageTextEndMarker">&nbsp;</div>
</blockquote>
</article>]]></description>
                <author><![CDATA[RetroBeatFM]]></author>
                </item>

                
                <item>
                <title><![CDATA[【Cinema Center】WEB-DL - Scorned 1080p WEB-DL Latino-Inglés]]></title>
                <link><![CDATA[https://sharemania.us/threads/scorned-1080p-web-dl-latino-ingl%C3%A9s.229961/]]></link>
                <description><![CDATA[<article>
<blockquote class="messageText SelectQuoteContainer ugc baseHtml">
<img src="https://images2.imgbox.com/b7/e3/sljNoe47_o.jpg" class="bbCodeImage LbImage" alt="[​IMG]" data-url="https://images2.imgbox.com/b7/e3/sljNoe47_o.jpg" style=""> <br>
<br>
Vídeo H264 1920x1080 (High@L4.1, AVC)<br>
Formato de audio: AC3 2.0 (Español Latino) AC3 2.0 (Inglés)<br>
Formato de subtítulos: Srt.y pgs<br>
Lista de subtítulos: Latino e inglés<br>
Lista de audio: Latino e inglés<br>
<br>
Capturas<br>
<br>
<img src="https://images2.imgbox.com/2c/65/g1eeUAYx_o.png" class="bbCodeImage LbImage" alt="[​IMG]" data-url="https://images2.imgbox.com/2c/65/g1eeUAYx_o.png" style=""> <img src="https://images2.imgbox.com/f1/48/V3YftEHH_o.png" class="bbCodeImage LbImage" alt="[​IMG]" data-url="https://images2.imgbox.com/f1/48/V3YftEHH_o.png" style=""> <img src="https://images2.imgbox.com/64/28/n3KbiKHZ_o.png" class="bbCodeImage LbImage" alt="[​IMG]" data-url="https://images2.imgbox.com/64/28/n3KbiKHZ_o.png" style=""> <br>
<br>
Descargar:
<div class="bbCodeBlock bbCodeVfcHH HiddenContent">
<div class="attribution type">Hidden Content:</div>
<blockquote>You must reply before you can see the hidden data contained here.</blockquote>
</div>
<div class="messageTextEndMarker">&nbsp;</div>
</blockquote>
</article>]]></description>
                <author><![CDATA[Trevor]]></author>
                </item>

                </channel></rss>